<svg width="24" height="24" viewBox="0 0 24 24" fill="none" xmlns="http://www.w3.org/2000/svg">
<path d="M14.3398 17.77L15.7498 16.36L19.9998 20.58L18.5598 22L14.3398 17.77ZM18.4998 2C19.428 2 20.3183 2.36875 20.9746 3.02513C21.631 3.6815 21.9998 4.57174 21.9998 5.5C21.9998 6.42826 21.631 7.3185 20.9746 7.97487C20.3183 8.63125 19.428 9 18.4998 9C17.5715 9 16.6813 8.63125 16.0249 7.97487C15.3685 7.3185 14.9998 6.42826 14.9998 5.5C14.9998 4.57174 15.3685 3.6815 16.0249 3.02513C16.6813 2.36875 17.5715 2 18.4998 2V2ZM2.23977 7.11L5.06977 4.28C5.45977 3.89 6.08977 3.89 6.49977 4.28L14.9698 12.77C15.3598 13.16 15.3598 13.79 14.9698 14.18L12.1398 17C11.7498 17.4 11.1198 17.4 10.7198 17L2.23977 8.53C1.84977 8.13 1.84977 7.5 2.23977 7.11Z" fill="#64748B"/>
</svg>