<svg width="25" height="25" viewBox="0 0 25 25" fill="none" xmlns="http://www.w3.org/2000/svg">
<path d="M16.9378 17.1591L16.1378 15.7991L17.5978 11.4291L19.0078 10.9591L20.0078 11.7091C20.0078 11.7391 20.0078 11.7891 20.0078 11.8491C20.0078 11.9191 20.0378 11.9791 20.0378 12.0391C20.0378 14.0091 19.3778 15.7491 18.0678 17.2491L16.9378 17.1591ZM9.75781 15.0391L8.38781 11.0091L12.0078 8.46906L15.6278 11.0091L14.2578 15.0391H9.75781ZM12.0078 20.0691C11.1278 20.0691 10.2978 19.9291 9.50781 19.6491L8.81781 18.1391L9.47781 17.0391H14.5878L15.1978 18.1391L14.5078 19.6491C13.7178 19.9291 12.8878 20.0691 12.0078 20.0691ZM5.94781 17.2491C5.41781 16.6291 4.95781 15.7991 4.56781 14.7891C4.17781 13.7691 3.97781 12.8491 3.97781 12.0391C3.97781 11.9791 4.00781 11.9191 4.00781 11.8491C4.00781 11.7891 4.00781 11.7391 4.00781 11.7091L5.00781 10.9591L6.41781 11.4291L7.87781 15.7991L7.07781 17.1591L5.94781 17.2491ZM11.0078 5.32906V6.72906L7.00781 9.49906L5.66781 9.07906L5.24781 7.71906C5.68781 7.03906 6.33781 6.35906 7.19781 5.69906C8.05781 5.03906 8.87781 4.60906 9.65781 4.38906L11.0078 5.32906ZM14.3578 4.38906C15.1378 4.60906 15.9578 5.03906 16.8178 5.69906C17.6778 6.35906 18.3278 7.03906 18.7678 7.71906L18.3478 9.07906L17.0078 9.50906L13.0078 6.73906V5.32906L14.3578 4.38906ZM4.93781 4.96906C3.00781 6.92906 2.00781 9.28906 2.00781 12.0391C2.00781 14.7891 3.00781 17.1491 4.93781 19.1091C6.86781 21.0691 9.25781 22.0391 12.0078 22.0391C14.7578 22.0391 17.1178 21.0391 19.0778 19.1091C21.0378 17.1791 22.0078 14.7891 22.0078 12.0391C22.0078 9.28906 21.0078 6.92906 19.0778 4.96906C17.1478 3.00906 14.7578 2.03906 12.0078 2.03906C9.25781 2.03906 6.89781 3.03906 4.93781 4.96906Z" fill="#64748B"/>
</svg>
