<svg width="85" height="117" viewBox="0 0 85 117" fill="none" xmlns="http://www.w3.org/2000/svg">
<path fill-rule="evenodd" clip-rule="evenodd" d="M24.0986 84.8891C24.5288 85.4833 25.1314 85.8722 25.438 85.7538C25.7443 85.6354 26.699 85.8344 27.559 86.196C29.042 86.8196 29.1096 86.9317 28.878 88.3692C28.7436 89.2028 27.5924 92.0395 26.3201 94.673C25.0475 97.3061 24.0064 99.7766 24.0064 100.162C24.0064 100.548 23.6246 101.658 23.1577 102.628C22.1684 104.685 21.5128 108.336 21.7978 110.203C22.1529 112.527 20.0457 112.469 18.1973 110.103C17.2588 108.903 17.0535 106.536 17.7316 104.741C18.7017 102.172 15.4321 102.918 13.6829 105.664C11.3892 109.265 9.83153 112.682 9.55322 114.724C9.25738 116.898 8.69532 117.41 7.38094 116.702C4.91991 115.376 4.8978 115.003 6.98537 110.043C7.69264 108.364 8.16832 106.886 8.0423 106.759C7.91671 106.633 7.00916 106.92 6.02608 107.399C5.04259 107.877 4.06786 108.268 3.85965 108.268C3.65101 108.268 2.93666 108.658 2.27154 109.134C1.06856 109.996 0.222353 109.932 0.222353 108.978C0.222353 108.517 3.0681 107.016 7.75648 105.004C9.77812 104.136 10.4967 103.359 13.2798 99.0295C14.2449 97.5282 15.281 96.0164 15.5823 95.67C17.4537 93.5173 21.1761 88.3453 21.5316 87.4042C22.0232 86.1032 21.7774 85.1709 20.9433 85.1709C19.6327 85.1709 16.2032 87.0795 14.6071 88.6972C10.7366 92.619 8.81633 97.0117 10.3131 98.518C11.1618 99.3722 10.2889 99.6296 8.86431 98.9459C8.11532 98.5865 7.13809 97.6114 6.69245 96.7786L5.88254 95.2651L6.97369 93.0528C8.34816 90.2653 10.5705 87.6691 13.3545 85.5997C15.9056 83.7028 16.5971 83.5155 20.428 83.683C22.9766 83.7943 23.4093 83.9367 24.0986 84.8891ZM17.2914 100.184C17.7712 99.4335 18.4889 98.3118 18.8866 97.6916C19.2842 97.0713 19.6856 96.6404 19.7791 96.7345C20.1763 97.1339 18.8169 100.778 18.133 101.146C16.7068 101.914 16.4055 101.57 17.2914 100.184Z" fill="black"/>
<path fill-rule="evenodd" clip-rule="evenodd" d="M56.7053 90.6608C57.446 91.2467 57.8048 91.9324 57.8048 92.7606C57.8048 94.2463 58.7232 94.4005 59.6491 93.0701C60.0013 92.5645 60.419 92.2814 60.5775 92.441C61.0169 92.8832 59.9203 94.7826 57.7109 97.4064C56.6148 98.7083 55.4823 100.315 55.194 100.976C54.1838 103.293 52.3303 105.643 50.9012 106.418C49.4912 107.182 49.4266 107.181 47.967 106.39C46.1394 105.4 45.2869 103.839 45.2869 101.486C45.2869 100.097 45.1755 99.8131 44.7862 100.205C43.3379 101.663 40.697 99.9026 40.697 97.4799C40.697 95.531 40.0932 95.7489 39.0217 98.0842C38.5184 99.1815 37.7503 100.835 37.3146 101.759C36.879 102.683 36.0858 104.572 35.5525 105.958L34.5824 108.478L32.6759 108.343C31.6207 108.268 30.6455 108.409 30.4928 108.658C30.3405 108.905 29.5556 109.108 28.7482 109.108C26.9682 109.108 24.8409 107.207 24.8409 105.616C24.8409 104.249 26.7612 96.6707 27.5473 94.9346C28.1907 93.5148 28.9226 93.2666 30.2929 94.0044C31.3699 94.5848 31.3106 95.8463 30.0463 99.226C28.9493 102.159 28.2033 107.01 28.85 107.005C29.4475 107.001 30.9939 104.403 31.311 102.871C31.4709 102.097 32.0262 100.491 32.5449 99.3016C33.0636 98.1124 33.8109 96.2419 34.206 95.1446C34.9513 93.0743 35.3251 92.8714 37.1231 93.5593C37.8316 93.8306 38.1976 94.2917 38.2059 94.9241C38.2176 95.7833 38.2622 95.8047 38.6499 95.1345C39.6063 93.4804 42.3706 91.0505 43.2882 91.0564C45.3265 91.0703 45.7822 92.1336 45.1392 95.3798L44.8225 96.9798L45.9132 96.2604C46.5132 95.8648 47.3899 94.7671 47.8614 93.8205C49.1416 91.253 50.254 90.1842 51.3564 90.4626C51.8697 90.5924 52.4146 90.4941 52.5682 90.2442C53.0351 89.4837 55.537 89.7357 56.7053 90.6608ZM52.8348 98.8422C52.2773 98.4953 53.0138 95.8068 54.1054 94.2039C54.6382 93.4211 55.1314 92.8387 55.2015 92.9092C55.2716 92.9798 55.2069 93.805 55.058 94.7427C54.7513 96.6745 53.3885 99.1866 52.8348 98.8422ZM49.4161 104.908C48.9179 104.908 48.9467 103.382 49.4816 101.444C49.7203 100.578 49.9924 99.869 50.0854 99.869C50.7564 99.869 52.3804 100.947 52.3804 101.392C52.3804 102.037 49.9603 104.908 49.4161 104.908Z" fill="black"/>
<path d="M33.1441 87.4806C34.4852 88.8013 31.7241 92.2793 29.8181 91.6704C29.0082 91.4117 28.9397 91.179 29.1721 89.4732C29.3148 88.4238 29.6524 87.2979 29.922 86.9712C30.4811 86.2934 32.2169 86.568 33.1441 87.4806Z" fill="black"/>
<path fill-rule="evenodd" clip-rule="evenodd" d="M71.5074 2.13421C74.8008 4.68748 77.173 7.62962 79.3256 11.8303L81.2442 15.575L81.1036 22.0035L80.963 28.432L78.5487 33.1867C76.1106 37.9883 73.2319 41.6591 69.7436 44.4148C67.4657 46.2142 69.0726 46.1529 71.8161 44.3354C74.7942 42.3625 75.9416 41.2534 78.5445 37.8334C79.8234 36.1523 80.9989 34.7774 81.1566 34.7774C82.7397 34.7774 84.907 41.1745 84.9979 46.116C85.1118 52.3198 80.5253 57.0669 70.6382 60.9778C67.3785 62.2675 65.026 62.9083 63.5422 62.9113C62.9113 62.9125 62.3947 63.1179 62.3947 63.3669C62.3947 63.6344 62.8658 63.7314 63.5422 63.6033C64.1731 63.4836 65.8163 63.2669 67.1933 63.1216C70.7225 62.7492 72.4316 62.2435 75.9904 60.5197C77.7021 59.6903 79.2167 59.1267 79.3561 59.267C79.7725 59.6861 78.7056 63.3081 77.3057 66.2297C74.4153 72.2613 70.995 73.9978 59.9955 75.0191C56.0365 75.3866 52.7976 75.8594 52.7976 76.0702C52.7976 76.2903 55.3284 76.3869 58.7437 76.2974L64.6897 76.1421L64.7948 77.1919C64.9158 78.3959 62.1686 81.5993 60.4515 82.2565C59.1956 82.7369 48.6847 82.7482 46.237 82.2716C45.2677 82.0826 44.5638 82.0734 44.6727 82.2506C45.1004 82.9464 48.9004 83.911 51.2162 83.911C53.7937 83.911 54.6503 84.5657 53.6539 85.7744C53.071 86.4811 46.3317 88.1105 43.99 88.1105C41.0921 88.1105 40.4466 87.6998 31.9958 80.4805C29.4283 78.2876 27.395 77.6119 23.3613 77.6119C19.7891 77.6119 19.4094 77.6942 18.2515 78.7163C17.5634 79.324 15.6369 80.3549 13.9704 81.0075C10.4608 82.382 8.66486 83.9619 6.61275 87.4806C3.96563 92.0202 2.59367 93.9897 2.07918 93.9897C1.28513 93.9897 0.203994 86.857 0.103433 80.958L0.0137212 75.6952L1.62061 72.2403C3.16282 68.9245 3.21539 68.6674 2.9329 65.8374C2.66293 63.133 2.52231 62.8 1.22587 61.8047C0.0491881 60.9018 -0.142336 60.5348 0.0817345 59.6122C0.229863 59.0028 0.480222 58.4099 0.637948 58.2944C0.795674 58.1789 0.874538 57.423 0.812366 56.6146C0.725575 55.4753 0.951313 54.9079 1.81714 54.0924C2.43177 53.5137 3.40399 52.4743 3.97773 51.7827C5.35095 50.1273 7.04713 49.0556 8.29391 49.0556C8.84804 49.0556 10.3598 49.5431 11.6533 50.1395C14.1327 51.2817 15.2439 52.7015 15.2439 54.7282C15.2439 56.6184 14.3338 59.5597 13.584 60.0926C12.6693 60.7431 11.4885 63.0305 11.4885 64.1526C11.4885 65.6375 12.9969 65.1403 14.908 63.0255C17.6615 59.9784 22.1951 55.4992 26.2851 51.7852C28.3201 49.9375 30.2904 48.1422 30.6639 47.7957C31.0373 47.4493 32.1798 46.4729 33.2033 45.6263C34.2265 44.7797 35.6464 43.5513 36.3583 42.8966C37.0705 42.242 39.0296 40.4782 40.712 38.9769C50.4005 30.3319 57.2945 22.1072 62.3242 13.1939C64.0183 10.1917 66.5674 3.4205 66.5674 1.9234C66.5674 1.13054 66.7026 0.34566 66.8678 0.179362C67.4236 -0.380006 69.2646 0.395633 71.5074 2.13421ZM14.4093 68.5373C14.4093 67.794 17.8155 64.1077 27.9429 53.8904C35.386 46.3809 41.7902 40.2367 42.1737 40.2367C42.8922 40.2367 42.5263 40.7675 40.0394 43.3326C39.5633 43.8243 38.1709 45.3601 36.9458 46.7459C33.5004 50.6434 28.598 55.8658 22.5568 62.0739C19.5225 65.192 16.8115 68.1791 16.532 68.712C16.1043 69.5271 16.1602 69.9126 16.8858 71.1506C17.3598 71.959 17.7475 72.9971 17.7475 73.4573C17.7475 74.6261 16.6596 76.6187 15.851 76.9311C14.7749 77.3469 11.7322 77.2339 10.2801 76.7241C9.15056 76.3281 8.81299 76.376 8.06901 77.0391C7.19526 77.8181 7.19234 77.816 7.48943 76.562C8.01768 74.3334 8.65485 74.0113 10.8593 74.8587C12.4666 75.4764 12.9831 75.513 14.0175 75.0817C15.5689 74.435 15.9094 73.1441 15.0657 71.1111C14.7048 70.2418 14.4093 69.0832 14.4093 68.5373Z" fill="black"/>
</svg>
