<svg width="24" height="24" viewBox="0 0 24 24" fill="none" xmlns="http://www.w3.org/2000/svg">
<path d="M20.3099 16.4402L14.5399 6.47019C13.7199 5.04019 11.8899 4.55019 10.4599 5.38019C9.99991 5.64019 9.62991 6.00019 9.35991 6.47019L3.59991 16.4402C2.76991 17.8702 3.25991 19.6902 4.68991 20.5002C5.13991 20.7802 5.64991 20.9202 6.17991 20.9202H17.7299C19.3799 20.9102 20.7199 19.5702 20.7099 17.9202C20.7099 17.4002 20.5699 16.8902 20.3099 16.4402ZM5.36991 17.4302L11.1099 7.47019C11.3799 7.00019 11.9999 6.82019 12.4599 7.10019C12.6199 7.18019 12.7499 7.31019 12.8399 7.47019L18.5799 17.4302C18.8499 17.9102 18.6899 18.5002 18.2099 18.7902C18.0599 18.8802 17.8899 18.9302 17.7199 18.9302H6.20991C5.65991 18.9202 5.20991 18.4702 5.21991 17.9202C5.21991 17.7502 5.25991 17.5802 5.34991 17.4302H5.36991ZM11.9699 13.4502C10.8699 13.4502 9.99991 12.5602 9.99991 11.4602C9.99991 10.3502 10.8699 9.46019 11.9699 9.46019C12.5003 9.46019 13.0091 9.6709 13.3841 10.046C13.7592 10.421 13.9699 10.9298 13.9699 11.4602C13.9699 12.5602 13.0699 13.4502 11.9499 13.4502H11.9699ZM9.45991 17.9302C8.35991 17.9302 7.46991 17.0402 7.46991 15.9402C7.46991 14.8402 8.35991 13.9502 9.45991 13.9502C10.5599 13.9502 11.4599 14.8402 11.4599 15.9402C11.4599 17.0402 10.5599 17.9302 9.45991 17.9302ZM14.4399 17.9302C13.9129 17.9276 13.4083 17.7171 13.0357 17.3444C12.663 16.9718 12.4525 16.4672 12.4499 15.9402C12.4525 15.4132 12.663 14.9086 13.0357 14.5359C13.4083 14.1633 13.9129 13.9528 14.4399 13.9502C15.5399 13.9502 16.4399 14.8402 16.4399 15.9402C16.4399 17.0402 15.5399 17.9302 14.4399 17.9302Z" fill="#64748B"/>
</svg>