<svg width="24" height="24" viewBox="0 0 24 24" fill="none" xmlns="http://www.w3.org/2000/svg">
<path d="M18.0001 15.0001C19.0609 15.0001 20.0783 15.4216 20.8285 16.1717C21.5786 16.9219 22.0001 17.9393 22.0001 19.0001C22.0001 20.061 21.5786 21.0784 20.8285 21.8286C20.0783 22.5787 19.0609 23.0001 18.0001 23.0001C16.9392 23.0001 15.9218 22.5787 15.1716 21.8286C14.4215 21.0784 14.0001 20.061 14.0001 19.0001C14.0001 17.9393 14.4215 16.9219 15.1716 16.1717C15.9218 15.4216 16.9392 15.0001 18.0001 15.0001ZM18.0001 17.0001C17.4696 17.0001 16.9609 17.2109 16.5858 17.5859C16.2108 17.961 16.0001 18.4697 16.0001 19.0001C16.0001 19.5306 16.2108 20.0393 16.5858 20.4144C16.9609 20.7894 17.4696 21.0001 18.0001 21.0001C18.5305 21.0001 19.0392 20.7894 19.4143 20.4144C19.7893 20.0393 20.0001 19.5306 20.0001 19.0001C20.0001 18.4697 19.7893 17.961 19.4143 17.5859C19.0392 17.2109 18.5305 17.0001 18.0001 17.0001ZM6.05006 14.5401C6.05006 14.5401 7.46006 13.1201 7.47006 10.3001C7.11006 8.11014 7.97006 5.54014 9.94006 3.58014C12.8701 0.650143 17.1401 0.170143 19.5001 2.50014C21.8301 4.86014 21.3501 9.13014 18.4201 12.0601C16.4601 14.0301 13.8901 14.8901 11.7001 14.5301C8.88006 14.5401 7.46006 15.9501 7.46006 15.9501L3.22006 20.1901L1.81006 18.7801L6.05006 14.5401ZM18.0701 3.93014C16.5001 2.37014 13.5001 2.84014 11.3501 5.00014C9.21006 7.14014 8.73006 10.1501 10.2901 11.7101C11.8601 13.2701 14.8601 12.7901 17.0001 10.6501C19.1601 8.50014 19.6301 5.50014 18.0701 3.93014Z" fill="#64748B"/>
</svg>